<?xml version="1.0" encoding="UTF-8"?>
<svg width="52px" height="52px" viewBox="0 0 52 52" version="1.1" xmlns="http://www.w3.org/2000/svg" xmlns:xlink="http://www.w3.org/1999/xlink">
    <!-- Generator: Sketch 63 (92445) - https://sketch.com -->
    <title>icon-uslug6</title>
    <desc>Created with Sketch.</desc>
    <defs>
        <polygon id="path-1" points="0 5.48387097e-05 34 5.48387097e-05 34 14.2580645 0 14.2580645"></polygon>
        <polygon id="path-3" points="0 33.4230968 34 33.4230968 34 0 0 0"></polygon>
    </defs>
    <g id="site" stroke="none" stroke-width="1" fill="none" fill-rule="evenodd">
        <g id="CTO" transform="translate(-409.000000, -740.000000)">
            <g id="icon-uslug6" transform="translate(409.000000, 740.000000)">
                <circle id="Oval" fill="#EB9021" cx="26" cy="26" r="26"></circle>
                <g id="Group-19" transform="translate(9.000000, 8.000000)">
                    <g id="Group-3" transform="translate(0.000000, 19.165032)">
                        <mask id="mask-2" fill="white">
                            <use xlink:href="#path-1"></use>
                        </mask>
                        <g id="Clip-2"></g>
                        <path d="M32.9032258,13.1613452 L14.8064516,13.1613452 L14.8064516,12.064571 L13.7096774,12.064571 L13.7096774,13.1613452 C12.4999355,13.1613452 11.516129,12.1775387 11.516129,10.9677968 L11.516129,3.29037742 C11.516129,2.08063548 12.4999355,1.09682903 13.7096774,1.09682903 L13.7096774,10.9677968 L14.8064516,10.9677968 L14.8064516,1.09682903 L32.9032258,1.09682903 L32.9032258,13.1613452 Z M3.29032258,9.32263548 C2.08058065,9.32263548 1.09677419,8.33882903 1.09677419,7.1290871 L1.09677419,2.78805484 C1.72687097,3.01344194 2.53958065,3.10776452 3.29032258,3.10776452 C4.04106452,3.10776452 4.85377419,3.01344194 5.48387097,2.78805484 L5.48387097,4.38715161 C5.48387097,4.99202258 5.97577419,5.48392581 6.58064516,5.48392581 L10.4193548,5.48392581 L10.4193548,9.32263548 L3.29032258,9.32263548 Z M3.29032258,1.27944194 C4.33774194,1.27944194 5.06106452,1.48289355 5.36596774,1.64521613 C5.06106452,1.80753871 4.33774194,2.01099032 3.29032258,2.01099032 C2.24290323,2.01099032 1.51958065,1.80753871 1.21467742,1.64521613 C1.51958065,1.48289355 2.24290323,1.27944194 3.29032258,1.27944194 L3.29032258,1.27944194 Z M13.7096774,5.48387097e-05 C11.8950645,5.48387097e-05 10.4193548,1.47521613 10.4193548,3.29037742 L10.4193548,4.38715161 L6.58064516,4.38715161 L6.58064516,1.64521613 C6.58064516,0.565441935 4.80825806,0.182667742 3.29032258,0.182667742 C1.7723871,0.182667742 0,0.565441935 0,1.64521613 L0,7.1290871 C0,8.9437 1.47570968,10.4194097 3.29032258,10.4194097 L10.4193548,10.4194097 L10.4193548,10.9677968 C10.4193548,12.7824097 11.8950645,14.2581194 13.7096774,14.2581194 L34,14.2581194 L34,5.48387097e-05 L13.7096774,5.48387097e-05 Z" id="Fill-1" fill="#FFFFFF" mask="url(#mask-2)"></path>
                    </g>
                    <path d="M4.14207742,18.5589 L4.63288387,17.5778355 C4.61369032,17.5679645 2.74204516,16.5984161 2.74204516,13.6809968 C2.74204516,10.8891581 3.97207742,10.3791581 4.01210968,10.3621581 L3.66498065,9.32241613 C3.58272258,9.35038387 1.64527097,10.0369645 1.64527097,13.6809968 C1.64527097,17.2690935 4.04007742,18.5079 4.14207742,18.5589" id="Fill-4" fill="#FFFFFF"></path>
                    <path d="M4.07890323,7.1953871 L4.38709677,7.64890323 L4.69145161,8.10516129 C4.76822581,8.0536129 6.58064516,6.81151613 6.58064516,3.81019355 C6.58064516,0.709064516 4.64319355,0.0274193548 4.5603871,0 L4.21380645,1.03974194 C4.22641935,1.04412903 5.48387097,1.52725806 5.48387097,3.81019355 C5.48387097,6.19787097 4.13648387,7.15590323 4.07890323,7.1953871" id="Fill-6" fill="#FFFFFF"></path>
                    <path d="M5.6362129,15.8653871 L6.67595484,15.5182581 C6.66937419,15.4985161 6.0316,13.4897742 8.09463226,11.4261935 C10.0682774,9.45309677 11.2994065,9.96090323 11.3394387,9.97790323 L11.8302452,8.99683871 C11.7529226,8.95845161 9.89389032,8.07554839 7.3192129,10.6507742 C4.78292258,13.1887097 5.60001935,15.7573548 5.6362129,15.8653871" id="Fill-8" fill="#FFFFFF"></path>
                    <path d="M17.7894032,7.16083871 C19.9824032,4.96783871 19.0940161,3.11593548 19.055629,3.03806452 L18.0707258,3.52064516 C18.0937581,3.57164516 18.6207581,4.77864516 17.0134355,6.38541935 C15.3271452,8.07335484 13.6962419,7.79806452 13.6271452,7.786 L13.4154677,8.86248387 C13.4423387,8.86796774 13.6375645,8.90416129 13.9523387,8.90416129 C14.740371,8.90416129 16.2753065,8.67603226 17.7894032,7.16083871" id="Fill-10" fill="#FFFFFF"></path>
                    <path d="M8.2833871,15.6295258 L9.26445161,16.1203323 C9.27432258,16.1011387 10.243871,14.2294935 13.1612903,14.2294935 C15.953129,14.2294935 16.463129,15.4595258 16.480129,15.4995581 L17.519871,15.152429 C17.4924516,15.070171 16.8053226,13.1327194 13.1612903,13.1327194 C9.57319355,13.1327194 8.3343871,15.5275258 8.2833871,15.6295258" id="Fill-12" fill="#FFFFFF"></path>
                    <path d="M23.0322581,18.0683129 C26.1333871,18.0683129 26.8150323,16.1308613 26.8424516,16.0480548 L25.8027097,15.7009258 C25.7983226,15.7140871 25.3151935,16.9715387 23.0322581,16.9715387 C20.6445806,16.9715387 19.6865484,15.6241516 19.6470645,15.566571 L18.7372903,16.178571 C18.7888387,16.2558935 20.0309355,18.0683129 23.0322581,18.0683129" id="Fill-14" fill="#FFFFFF"></path>
                    <mask id="mask-4" fill="white">
                        <use xlink:href="#path-3"></use>
                    </mask>
                    <g id="Clip-17"></g>
                    <polygon id="Fill-16" fill="#FFFFFF" mask="url(#mask-4)" points="15.9032258 31.2295484 17 31.2295484 17 30.1327742 15.9032258 30.1327742"></polygon>
                    <polygon id="Fill-18" fill="#FFFFFF" mask="url(#mask-4)" points="18.0967742 31.2295484 31.8064516 31.2295484 31.8064516 30.1327742 18.0967742 30.1327742"></polygon>
                </g>
            </g>
        </g>
    </g>
</svg>