<?xml version="1.0" encoding="UTF-8"?>
<svg width="52px" height="52px" viewBox="0 0 52 52" version="1.1" xmlns="http://www.w3.org/2000/svg" xmlns:xlink="http://www.w3.org/1999/xlink">
    <!-- Generator: Sketch 63 (92445) - https://sketch.com -->
    <title>icon-uslug5</title>
    <desc>Created with Sketch.</desc>
    <g id="site" stroke="none" stroke-width="1" fill="none" fill-rule="evenodd">
        <g id="CTO" transform="translate(-417.000000, -594.000000)">
            <g id="icon-uslug5" transform="translate(417.000000, 594.000000)">
                <circle id="Oval" fill="#EB9021" cx="26" cy="26" r="26"></circle>
                <g id="icon" transform="translate(10.000000, 12.000000)" fill="#FFFFFF">
                    <path d="M17.0374794,29.5243293 L16.300131,29.9718627 L15.5627826,29.5243293 C7.26925032,24.4871293 2.06590194,15.407756 1.89826323,5.739076 L16.300131,1.36566267 L30.7019987,5.73842267 C30.53436,15.407756 25.3310116,24.4871293 17.0374794,29.5243293 L17.0374794,29.5243293 Z M0.584001935,4.77214267 L0.584001935,5.25626267 C0.584001935,15.5573693 6.06238258,25.284196 14.8824052,30.6402227 L16.300131,31.5006627 L17.7178568,30.6395693 C26.5378794,25.284196 32.01626,15.5573693 32.01626,5.25626267 L32.01626,4.77214267 L16.300131,0.000196 L0.584001935,4.77214267 Z" id="Fill-1"></path>
                    <path d="M5.90116129,12.0774547 L8.18523871,12.0774547 L8.18523871,9.33476133 L5.90116129,9.33476133 L5.90116129,12.0774547 Z M5.43622581,12.991468 L4.9843871,12.5413213 L4.9843871,8.88461467 L5.43622581,8.420748 L8.64297097,8.420748 L9.09480968,8.88461467 L9.09480968,12.5413213 L8.64297097,12.991468 L5.43622581,12.991468 Z" id="Fill-3"></path>
                    <polygon id="Fill-5" points="10.2031897 12.9915987 9.75135097 12.541452 9.75135097 8.884092 10.2031897 8.42087867 13.4099348 8.42087867 13.8611187 8.884092 13.8611187 9.79222533 12.9522026 9.79222533 12.9522026 9.334892 10.6674703 9.334892 10.6674703 12.0775853 12.9522026 12.0775853 12.9522026 11.6267853 13.8611187 11.6267853 13.8611187 12.541452 13.4099348 12.9915987"></polygon>
                    <path d="M17.5883952,10.712576 L17.5883952,9.334696 L16.2138887,9.334696 L15.3043177,10.255896 L15.3043177,10.712576 L17.5883952,10.712576 Z M14.3875435,12.9914027 L14.3875435,9.79856267 L15.7555016,8.42068267 L18.498621,8.42068267 L18.498621,12.9914027 L17.5883952,12.9914027 L17.5883952,11.6265893 L15.3043177,11.6265893 L15.3043177,12.9914027 L14.3875435,12.9914027 Z" id="Fill-6"></path>
                    <polygon id="Fill-7" points="19.1550968 12.9915987 19.1550968 8.42087867 23.0428742 8.42087867 23.0428742 9.334892 20.0712161 9.334892 20.0712161 12.9915987"></polygon>
                    <path d="M24.4193452,12.0774547 L26.7027677,12.0774547 L26.7027677,9.33476133 L24.4193452,9.33476133 L24.4193452,12.0774547 Z M23.9544097,12.991468 L23.5032258,12.5413213 L23.5032258,8.88461467 L23.9544097,8.420748 L27.1618097,8.420748 L27.6129935,8.88461467 L27.6129935,12.5413213 L27.1618097,12.991468 L23.9544097,12.991468 Z" id="Fill-8"></path>
                    <path d="M12.690529,18.988676 L13.4638935,16.673916 L19.1361065,16.673916 L19.909471,18.988676 L12.690529,18.988676 Z M19.1361065,21.5608493 C18.7078419,21.5608493 18.3627419,21.2158893 18.3627419,20.7892627 C18.3627419,20.362636 18.7078419,20.017676 19.1361065,20.017676 C19.5637161,20.017676 19.909471,20.362636 19.909471,20.7892627 C19.909471,21.2158893 19.5637161,21.5608493 19.1361065,21.5608493 L19.1361065,21.5608493 Z M13.4638935,21.5608493 C13.0362839,21.5608493 12.690529,21.2158893 12.690529,20.7892627 C12.690529,20.362636 13.0362839,20.017676 13.4638935,20.017676 C13.8921581,20.017676 14.2372581,20.362636 14.2372581,20.7892627 C14.2372581,21.2158893 13.8921581,21.5608493 13.4638935,21.5608493 L13.4638935,21.5608493 Z M19.8682161,16.4217293 C19.7621323,16.1179293 19.4733484,15.901676 19.1361065,15.901676 L13.4638935,15.901676 C13.1266516,15.901676 12.8378677,16.1179293 12.7317839,16.4217293 L11.6591581,19.5028493 L11.6591581,23.618196 C11.6591581,23.9017427 11.8916258,24.1330227 12.175171,24.1330227 L12.690529,24.1330227 C12.9766935,24.1330227 13.2065419,23.9017427 13.2065419,23.618196 L13.2065419,23.1040227 L19.3934581,23.1040227 L19.3934581,23.618196 C19.3934581,23.9017427 19.6259258,24.1330227 19.909471,24.1330227 L20.424829,24.1330227 C20.7109935,24.1330227 20.9408419,23.9017427 20.9408419,23.618196 L20.9408419,19.5028493 L19.8682161,16.4217293 Z" id="Fill-11"></path>
                </g>
            </g>
        </g>
    </g>
</svg>