<?xml version="1.0" encoding="UTF-8"?>
<svg width="52px" height="52px" viewBox="0 0 52 52" version="1.1" xmlns="http://www.w3.org/2000/svg" xmlns:xlink="http://www.w3.org/1999/xlink">
    <!-- Generator: Sketch 63 (92445) - https://sketch.com -->
    <title>icon-uslug10</title>
    <desc>Created with Sketch.</desc>
    <defs>
        <polygon id="path-1" points="0.00013877551 4.93029653e-15 33.3061224 4.93029653e-15 33.3061224 33.4553061 0.00013877551 33.4553061"></polygon>
    </defs>
    <g id="site" stroke="none" stroke-width="1" fill="none" fill-rule="evenodd">
        <g id="CTO" transform="translate(-1002.000000, -594.000000)">
            <g id="icon-uslug10" transform="translate(1002.000000, 594.000000)">
                <circle id="Oval" fill="#EB9021" cx="26" cy="26" r="26"></circle>
                <g id="Group-7" transform="translate(9.000000, 11.000000)">
                    <mask id="mask-2" fill="white">
                        <use xlink:href="#path-1"></use>
                    </mask>
                    <g id="Clip-2"></g>
                    <path d="M12.5196327,22.1506531 L21.6697959,22.1506531 L21.6697959,13.6936735 L12.5196327,13.6936735 L12.5196327,22.1506531 Z M22.332449,23.4766531 L11.8569796,23.4766531 C11.4913061,23.4766531 11.1943265,23.1796735 11.1943265,22.8133061 L11.1943265,13.0303265 C11.1943265,12.6646531 11.4913061,12.3676735 11.8569796,12.3676735 L22.332449,12.3676735 C22.6988163,12.3676735 22.9957959,12.6646531 22.9957959,13.0303265 L22.9957959,22.8133061 C22.9957959,23.1796735 22.6988163,23.4766531 22.332449,23.4766531 L22.332449,23.4766531 Z" id="Fill-1" fill="#FFFFFF" mask="url(#mask-2)"></path>
                    <path d="M13.7761061,12.3675347 L20.4165143,12.3675347 L20.4165143,10.3545959 C20.395698,8.52067755 18.8920653,7.0510449 17.0574531,7.0725551 C15.2540653,7.09337143 13.7962286,8.55051429 13.7761061,10.3545959 L13.7761061,12.3675347 Z M21.0798612,13.6935347 L13.1127592,13.6935347 C12.7470857,13.6935347 12.4501061,13.3965551 12.4501061,13.0308816 L12.4501061,10.3545959 C12.4750857,7.78794286 14.5754531,5.72851429 17.1421061,5.75349388 C19.6726776,5.77777959 21.7182286,7.82402449 21.7425143,10.3545959 L21.7425143,13.0308816 C21.7425143,13.3965551 21.4462286,13.6935347 21.0798612,13.6935347 L21.0798612,13.6935347 Z" id="Fill-3" fill="#FFFFFF" mask="url(#mask-2)"></path>
                    <path d="M17.0963796,16.390151 C16.6939306,16.390151 16.3671143,16.7162735 16.3671143,17.1194163 C16.3671143,17.5218653 16.6939306,17.8486816 17.0963796,17.8486816 C17.4995224,17.8486816 17.8256449,17.5218653 17.8256449,17.1194163 C17.8256449,16.7169673 17.4988286,16.390151 17.0963796,16.390151 M17.0963796,19.1746816 C15.9611959,19.1746816 15.0411143,18.2546 15.0411143,17.1194163 C15.0411143,15.9842327 15.9611959,15.064151 17.0963796,15.064151 C18.2315633,15.064151 19.1516449,15.9842327 19.1516449,17.1194163 C19.150951,18.2539061 18.2315633,19.1732939 17.0963796,19.1746816" id="Fill-4" fill="#FFFFFF" mask="url(#mask-2)"></path>
                    <path d="M17.0963796,20.7804531 C16.7307061,20.7804531 16.4337265,20.4834735 16.4337265,20.1171061 L16.4337265,18.5114735 C16.4337265,18.1458 16.7307061,17.8488204 17.0963796,17.8488204 C17.4627469,17.8488204 17.7597265,18.1458 17.7597265,18.5114735 L17.7597265,20.1171061 C17.7597265,20.4834735 17.4627469,20.7804531 17.0963796,20.7804531" id="Fill-5" fill="#FFFFFF" mask="url(#mask-2)"></path>
                    <path d="M17.4345061,31.3563265 L16.6532,31.8316327 L15.8718939,31.3563265 C7.08393469,26.0065306 1.57038367,16.3637143 1.39275102,6.09502041 L16.6532,1.45020408 L31.913649,6.09432653 C31.7353224,16.3637143 26.2224653,26.0065306 17.4345061,31.3563265 L17.4345061,31.3563265 Z M0.00013877551,5.06808163 L0.00013877551,5.5822449 C0.00013877551,16.5226122 5.80511837,26.8530612 15.1509551,32.5414694 L16.6532,33.4553061 L18.1554449,32.5407755 C27.5012816,26.8530612 33.3062612,16.5226122 33.3062612,5.5822449 L33.3062612,5.06808163 L16.6532,4.93029653e-15 L0.00013877551,5.06808163 Z" id="Fill-6" fill="#FFFFFF" mask="url(#mask-2)"></path>
                </g>
            </g>
        </g>
    </g>
</svg>