<?xml version="1.0" encoding="UTF-8"?>
<svg width="52px" height="52px" viewBox="0 0 52 52" version="1.1" xmlns="http://www.w3.org/2000/svg" xmlns:xlink="http://www.w3.org/1999/xlink">
    <!-- Generator: Sketch 63 (92445) - https://sketch.com -->
    <title>icon-uslug4</title>
    <desc>Created with Sketch.</desc>
    <defs>
        <polygon id="path-1" points="0.000144144144 0.0565765766 39.9075315 0.0565765766 39.9075315 20.1800721 0.000144144144 20.1800721"></polygon>
        <polygon id="path-3" points="0 20.4840721 39.9077477 20.4840721 39.9077477 0.360468468 0 0.360468468"></polygon>
    </defs>
    <g id="site" stroke="none" stroke-width="1" fill="none" fill-rule="evenodd">
        <g id="CTO" transform="translate(-707.000000, -594.000000)">
            <g id="icon-uslug4" transform="translate(707.000000, 594.000000)">
                <circle id="Oval" fill="#EB9021" cx="26" cy="26" r="26"></circle>
                <g id="Group-12" transform="translate(6.000000, 16.000000)">
                    <g id="Group-3" transform="translate(0.000000, 0.303892)">
                        <mask id="mask-2" fill="white">
                            <use xlink:href="#path-1"></use>
                        </mask>
                        <g id="Clip-2"></g>
                        <path d="M2.58356757,1.13754955 C1.7550991,1.13754955 1.08122523,1.81178378 1.08122523,2.63989189 L1.08122523,17.5966486 C1.08122523,18.4251171 1.7550991,19.098991 2.58356757,19.098991 L37.3237477,19.098991 C38.1522162,19.098991 38.8264505,18.4251171 38.8264505,17.5966486 L38.8264505,2.63989189 C38.8264505,1.81178378 38.1522162,1.13754955 37.3237477,1.13754955 L2.58356757,1.13754955 Z M37.3237477,20.1800721 L2.58356757,20.1800721 C1.15906306,20.1800721 0.000144144144,19.0211532 0.000144144144,17.5966486 L0.000144144144,2.63989189 C0.000144144144,1.21538739 1.15906306,0.0564684685 2.58356757,0.0564684685 L37.3237477,0.0564684685 C38.7482523,0.0564684685 39.9075315,1.21538739 39.9075315,2.63989189 L39.9075315,17.5966486 C39.9075315,19.0211532 38.7482523,20.1800721 37.3237477,20.1800721 L37.3237477,20.1800721 Z" id="Fill-1" fill="#FFFFFF" mask="url(#mask-2)"></path>
                    </g>
                    <path d="M4.75769369,4.60904505 C4.49246847,4.60904505 4.27661261,4.8249009 4.27661261,5.08976577 L4.27661261,15.7546306 C4.27661261,16.0198559 4.49246847,16.2357117 4.75769369,16.2357117 L20.9295856,16.2357117 C21.1948108,16.2357117 21.4106667,16.0198559 21.4106667,15.7546306 L21.4106667,5.08976577 C21.4106667,4.8249009 21.1948108,4.60904505 20.9295856,4.60904505 L4.75769369,4.60904505 Z M20.9295856,17.3167928 L4.75769369,17.3167928 C3.89643243,17.3167928 3.19553153,16.6158919 3.19553153,15.7546306 L3.19553153,5.08976577 C3.19553153,4.2285045 3.89643243,3.52796396 4.75769369,3.52796396 L20.9295856,3.52796396 C21.7912072,3.52796396 22.4917477,4.2285045 22.4917477,5.08976577 L22.4917477,15.7546306 C22.4917477,16.6158919 21.7912072,17.3167928 20.9295856,17.3167928 L20.9295856,17.3167928 Z" id="Fill-4" fill="#FFFFFF"></path>
                    <mask id="mask-4" fill="white">
                        <use xlink:href="#path-3"></use>
                    </mask>
                    <g id="Clip-7"></g>
                    <polygon id="Fill-6" fill="#FFFFFF" mask="url(#mask-4)" points="5.89297297 9.56479279 17.1574775 9.56479279 17.1574775 8.48371171 5.89297297 8.48371171"></polygon>
                    <polygon id="Fill-8" fill="#FFFFFF" mask="url(#mask-4)" points="5.89297297 12.3608288 13.3228829 12.3608288 13.3228829 11.2797477 5.89297297 11.2797477"></polygon>
                    <path d="M25.7185586,8.79722523 L29.270991,8.79722523 L29.270991,7.00227027 L25.7185586,7.00227027 L25.7185586,8.79722523 Z M29.3009009,9.87830631 L25.689009,9.87830631 C25.1088288,9.87830631 24.6374775,9.40659459 24.6374775,8.82713514 L24.6374775,6.97236036 C24.6374775,6.39254054 25.1088288,5.92118919 25.689009,5.92118919 L29.3009009,5.92118919 C29.8803604,5.92118919 30.3520721,6.39254054 30.3520721,6.97236036 L30.3520721,8.82713514 C30.3520721,9.40659459 29.8803604,9.87830631 29.3009009,9.87830631 L29.3009009,9.87830631 Z" id="Fill-9" fill="#FFFFFF" mask="url(#mask-4)"></path>
                    <path d="M32.1899099,8.79722523 L35.741982,8.79722523 L35.741982,7.00227027 L32.1899099,7.00227027 L32.1899099,8.79722523 Z M35.7718919,9.87830631 L32.16,9.87830631 C31.5801802,9.87830631 31.1088288,9.40659459 31.1088288,8.82713514 L31.1088288,6.97236036 C31.1088288,6.39254054 31.5801802,5.92118919 32.16,5.92118919 L35.7718919,5.92118919 C36.3513514,5.92118919 36.8230631,6.39254054 36.8230631,6.97236036 L36.8230631,8.82713514 C36.8230631,9.40659459 36.3513514,9.87830631 35.7718919,9.87830631 L35.7718919,9.87830631 Z" id="Fill-10" fill="#FFFFFF" mask="url(#mask-4)"></path>
                    <path d="M25.7279279,13.8422703 L35.7513514,13.8422703 L35.7513514,12.0473153 L25.7279279,12.0473153 L25.7279279,13.8422703 Z M35.7812613,14.9233514 L25.698018,14.9233514 C25.1185586,14.9233514 24.6468468,14.4516396 24.6468468,13.8721802 L24.6468468,12.0174054 C24.6468468,11.4375856 25.1185586,10.9662342 25.698018,10.9662342 L35.7812613,10.9662342 C36.3610811,10.9662342 36.8324324,11.4375856 36.8324324,12.0174054 L36.8324324,13.8721802 C36.8324324,14.4516396 36.3610811,14.9233514 35.7812613,14.9233514 L35.7812613,14.9233514 Z" id="Fill-11" fill="#FFFFFF" mask="url(#mask-4)"></path>
                </g>
            </g>
        </g>
    </g>
</svg>