<?xml version="1.0" encoding="UTF-8"?>
<svg width="52px" height="52px" viewBox="0 0 52 52" version="1.1" xmlns="http://www.w3.org/2000/svg" xmlns:xlink="http://www.w3.org/1999/xlink">
    <!-- Generator: Sketch 63 (92445) - https://sketch.com -->
    <title>icon-uslug1</title>
    <desc>Created with Sketch.</desc>
    <defs>
        <polygon id="path-1" points="0 7.82608696e-05 28.173913 7.82608696e-05 28.173913 36 0 36"></polygon>
    </defs>
    <g id="site" stroke="none" stroke-width="1" fill="none" fill-rule="evenodd">
        <g id="CTO" transform="translate(-1002.000000, -742.000000)">
            <g id="icon-uslug1" transform="translate(1002.000000, 742.000000)">
                <circle id="Oval" fill="#EB9021" cx="26" cy="26" r="26"></circle>
                <g id="Group-3" transform="translate(12.000000, 8.000000)">
                    <mask id="mask-2" fill="white">
                        <use xlink:href="#path-1"></use>
                    </mask>
                    <g id="Clip-2"></g>
                    <path d="M14.0869565,8.60877391 C11.0613913,8.60877391 8.60869565,11.0614696 8.60869565,14.0870348 C8.60869565,17.1126 11.0613913,19.5652957 14.0869565,19.5652957 C17.1125217,19.5652957 19.5652174,17.1126 19.5652174,14.0870348 C19.5652174,11.0614696 17.1125217,8.60877391 14.0869565,8.60877391 M14.0869565,21.130513 C10.1966087,21.130513 7.04347826,17.9773826 7.04347826,14.0870348 C7.04347826,10.196687 10.1966087,7.04355652 14.0869565,7.04355652 C17.9773043,7.04355652 21.1304348,10.196687 21.1304348,14.0870348 C21.1304348,17.9773826 17.9773043,21.130513 14.0869565,21.130513 M14.0869565,1.56529565 C7.18278261,1.56529565 1.56521739,7.18286087 1.56521739,14.0870348 C1.56521739,25.6367739 11.318087,32.4791217 14.0893043,34.1899043 C16.8628696,32.4861652 26.6086957,25.6735565 26.6086957,14.0870348 C26.6086957,7.18286087 20.9911304,1.56529565 14.0869565,1.56529565 M14.0869565,36.0000783 C14.0869565,36.0000783 0,28.6302522 0,14.0870348 C0,6.30712174 6.30704348,7.82608696e-05 14.0869565,7.82608696e-05 C21.8668696,7.82608696e-05 28.173913,6.30712174 28.173913,14.0870348 C28.173913,28.6302522 14.0869565,36.0000783 14.0869565,36.0000783" id="Fill-1" fill="#FFFFFF" mask="url(#mask-2)"></path>
                </g>
            </g>
        </g>
    </g>
</svg>