<?xml version="1.0" encoding="UTF-8"?>
<svg width="52px" height="52px" viewBox="0 0 52 52" version="1.1" xmlns="http://www.w3.org/2000/svg" xmlns:xlink="http://www.w3.org/1999/xlink">
    <!-- Generator: Sketch 63 (92445) - https://sketch.com -->
    <title>icon-uslug9</title>
    <desc>Created with Sketch.</desc>
    <defs>
        <polygon id="path-1" points="0.000145 0.000145 33.35 0.000145 33.35 29 0.000145 29"></polygon>
        <polygon id="path-3" points="0 29 33.35 29 33.35 0 0 0"></polygon>
    </defs>
    <g id="site" stroke="none" stroke-width="1" fill="none" fill-rule="evenodd">
        <g id="CTO" transform="translate(-702.000000, -737.000000)">
            <g id="icon-uslug9" transform="translate(702.000000, 737.000000)">
                <circle id="Oval" fill="#EB9021" cx="26" cy="26" r="26"></circle>
                <g id="Group-9" transform="translate(9.000000, 13.000000)">
                    <g id="Group-3">
                        <mask id="mask-2" fill="white">
                            <use xlink:href="#path-1"></use>
                        </mask>
                        <g id="Clip-2"></g>
                        <path d="M16.675145,20.300145 C16.27422,20.300145 15.950145,19.97607 15.950145,19.575145 C15.950145,19.17422 16.27422,18.850145 16.675145,18.850145 C17.07607,18.850145 17.400145,19.17422 17.400145,19.575145 C17.400145,19.97607 17.07607,20.300145 16.675145,20.300145 L16.675145,20.300145 Z M31.900145,18.125145 L1.450145,18.125145 L1.450145,19.575145 C1.450145,20.375545 2.099745,21.025145 2.900145,21.025145 L13.050145,21.025145 L20.300145,21.025145 L30.450145,21.025145 C31.250545,21.025145 31.900145,20.375545 31.900145,19.575145 L31.900145,18.125145 Z M31.900145,2.900145 C31.900145,2.099745 31.250545,1.450145 30.450145,1.450145 L2.900145,1.450145 C2.099745,1.450145 1.450145,2.099745 1.450145,2.900145 L1.450145,16.675145 L31.900145,16.675145 L31.900145,2.900145 Z M11.88797,27.550145 L21.461595,27.550145 C20.30522,26.330695 19.27572,24.667545 18.95382,22.475145 L14.395745,22.475145 C14.073845,24.667545 13.044345,26.330695 11.88797,27.550145 L11.88797,27.550145 Z M30.450145,22.475145 L20.44152,22.475145 C20.872895,24.86837 22.306945,26.514845 23.632245,27.550145 L25.375145,27.550145 C25.77607,27.550145 26.100145,27.87422 26.100145,28.275145 C26.100145,28.67607 25.77607,29.000145 25.375145,29.000145 L7.975145,29.000145 C7.57422,29.000145 7.250145,28.67607 7.250145,28.275145 C7.250145,27.87422 7.57422,27.550145 7.975145,27.550145 L9.71732,27.550145 C11.041895,26.514845 12.477395,24.86837 12.908045,22.475145 L2.900145,22.475145 C1.29862,22.475145 0.000145,21.17667 0.000145,19.575145 L0.000145,2.900145 C0.000145,1.29862 1.29862,0.000145 2.900145,0.000145 L30.450145,0.000145 C32.05167,0.000145 33.350145,1.29862 33.350145,2.900145 L33.350145,19.575145 C33.350145,21.17667 32.05167,22.475145 30.450145,22.475145 L30.450145,22.475145 Z" id="Fill-1" fill="#FFFFFF" mask="url(#mask-2)"></path>
                    </g>
                    <path d="M5.36616,7.920625 L6.222385,5.35195 L12.50161,5.35195 L13.357835,7.920625 L5.36616,7.920625 Z M12.50161,10.77495 C12.028185,10.77495 11.64611,10.392875 11.64611,9.918725 C11.64611,9.4453 12.028185,9.0625 12.50161,9.0625 C12.97576,9.0625 13.357835,9.4453 13.357835,9.918725 C13.357835,10.392875 12.97576,10.77495 12.50161,10.77495 L12.50161,10.77495 Z M6.222385,10.77495 C5.748235,10.77495 5.36616,10.392875 5.36616,9.918725 C5.36616,9.4453 5.748235,9.0625 6.222385,9.0625 C6.69581,9.0625 7.07861,9.4453 7.07861,9.918725 C7.07861,10.392875 6.69581,10.77495 6.222385,10.77495 L6.222385,10.77495 Z M13.31216,5.0721 C13.195435,4.734975 12.87571,4.495725 12.50161,4.495725 L6.222385,4.495725 C5.84901,4.495725 5.529285,4.734975 5.411835,5.0721 L4.224285,8.491925 L4.224285,13.0587 C4.224285,13.372625 4.480935,13.629275 4.79486,13.629275 L5.36616,13.629275 C5.682985,13.629275 5.93746,13.372625 5.93746,13.0587 L5.93746,12.4874 L12.78726,12.4874 L12.78726,13.0587 C12.78726,13.372625 13.04391,13.629275 13.357835,13.629275 L13.929135,13.629275 C14.24596,13.629275 14.500435,13.372625 14.500435,13.0587 L14.500435,8.491925 L13.31216,5.0721 Z" id="Fill-4" fill="#FFFFFF"></path>
                    <mask id="mask-4" fill="white">
                        <use xlink:href="#path-3"></use>
                    </mask>
                    <g id="Clip-7"></g>
                    <polygon id="Fill-6" fill="#FFFFFF" mask="url(#mask-4)" points="18.2004 7.6995 28.326475 7.6995 28.326475 6.2495 18.2004 6.2495"></polygon>
                    <polygon id="Fill-8" fill="#FFFFFF" mask="url(#mask-4)" points="18.2004 11.8755 24.8791 11.8755 24.8791 10.4255 18.2004 10.4255"></polygon>
                </g>
            </g>
        </g>
    </g>
</svg>