<?xml version="1.0" encoding="UTF-8"?>
<svg width="52px" height="52px" viewBox="0 0 52 52" version="1.1" xmlns="http://www.w3.org/2000/svg" xmlns:xlink="http://www.w3.org/1999/xlink">
    <!-- Generator: Sketch 63 (92445) - https://sketch.com -->
    <title>icon-uslug2</title>
    <desc>Created with Sketch.</desc>
    <defs>
        <polygon id="path-1" points="0.3348 0.3844 31.0152 0.3844 31.0152 35.59996 0.3348 35.59996"></polygon>
    </defs>
    <g id="site" stroke="none" stroke-width="1" fill="none" fill-rule="evenodd">
        <g id="CTO" transform="translate(-709.000000, -895.000000)">
            <g id="icon-uslug2" transform="translate(709.000000, 895.000000)">
                <circle id="Oval" fill="#EB9021" cx="26" cy="26" r="26"></circle>
                <g id="Group-14" transform="translate(9.000000, 8.000000)">
                    <g id="Group-3" transform="translate(0.800000, 0.015640)">
                        <mask id="mask-2" fill="white">
                            <use xlink:href="#path-1"></use>
                        </mask>
                        <g id="Clip-2"></g>
                        <path d="M12.046,1.58436 C11.5692,1.58436 11.114,1.78916 10.798,2.14596 L1.9544,12.12716 C1.684,12.43276 1.5348,12.82556 1.5348,13.23316 L1.5348,32.73236 C1.5348,33.65196 2.2832,34.39996 3.2028,34.39996 L28.1476,34.39996 C29.0672,34.39996 29.8152,33.65196 29.8152,32.73236 L29.8152,3.25196 C29.8152,2.33236 29.0672,1.58436 28.1476,1.58436 L12.046,1.58436 Z M28.1476,35.59996 L3.2028,35.59996 C1.6212,35.59996 0.3348,34.31356 0.3348,32.73236 L0.3348,13.23316 C0.3348,12.53196 0.5908,11.85676 1.056,11.33156 L9.8996,1.35036 C10.4432,0.73636 11.2256,0.38436 12.046,0.38436 L28.1476,0.38436 C29.7288,0.38436 31.0152,1.67076 31.0152,3.25196 L31.0152,32.73236 C31.0152,34.31356 29.7288,35.59996 28.1476,35.59996 L28.1476,35.59996 Z" id="Fill-1" fill="#FFFFFF" mask="url(#mask-2)"></path>
                    </g>
                    <path d="M4.24952,4.51916 C4.14872,4.51916 4.04872,4.55996 3.97592,4.64036 L1.29312,7.61996 C1.15792,7.77036 1.17032,8.00276 1.32072,8.13796 L2.85072,9.51556 C3.00112,9.65116 3.23312,9.63836 3.36912,9.48836 L6.05192,6.50876 C6.11712,6.43636 6.14992,6.34236 6.14472,6.24396 C6.13992,6.14596 6.09672,6.05596 6.02432,5.99076 L4.49432,4.61316 C4.42432,4.54996 4.33712,4.51916 4.24952,4.51916 M3.09512,10.80916 C2.72152,10.80916 2.34632,10.67676 2.04752,10.40756 L0.51752,9.02996 C-0.12448,8.45196 -0.17608,7.45916 0.40152,6.81716 L3.08472,3.83716 C3.66272,3.19516 4.65592,3.14316 5.29752,3.72116 L6.82712,5.09876 C7.13792,5.37836 7.32152,5.76276 7.34312,6.18116 C7.36512,6.59956 7.22352,7.00116 6.94352,7.31156 L6.94312,7.31196 L4.26032,10.29156 C3.95152,10.63436 3.52432,10.80916 3.09512,10.80916" id="Fill-4" fill="#FFFFFF"></path>
                    <path d="M14.94172,5.31896 C14.73932,5.31896 14.57452,5.48336 14.57452,5.68576 L14.57452,7.74416 C14.57452,7.94656 14.73932,8.11136 14.94172,8.11136 L26.13372,8.11136 C26.33612,8.11136 26.50052,7.94656 26.50052,7.74416 L26.50052,5.68576 C26.50052,5.48336 26.33612,5.31896 26.13372,5.31896 L14.94172,5.31896 Z M26.13372,9.31136 L14.94172,9.31136 C14.07772,9.31136 13.37452,8.60856 13.37452,7.74416 L13.37452,5.68576 C13.37452,4.82176 14.07772,4.11896 14.94172,4.11896 L26.13372,4.11896 C26.99812,4.11896 27.70052,4.82176 27.70052,5.68576 L27.70052,7.74416 C27.70052,8.60856 26.99812,9.31136 26.13372,9.31136 L26.13372,9.31136 Z" id="Fill-6" fill="#FFFFFF"></path>
                    <path d="M27.60696,32.58652 L5.34296,32.58652 C4.39016,32.58652 3.61536,31.75572 3.61536,30.73492 L3.61536,26.19092 C3.61536,25.16972 4.39016,24.33932 5.34296,24.33932 L10.47856,24.33932 L10.47856,25.53932 L5.34296,25.53932 C5.05176,25.53932 4.81536,25.83172 4.81536,26.19092 L4.81536,30.73492 C4.81536,31.09412 5.05176,31.38652 5.34296,31.38652 L27.60696,31.38652 C27.89816,31.38652 28.13456,31.09412 28.13456,30.73492 L28.13456,26.19092 C28.13456,25.83172 27.89816,25.53932 27.60696,25.53932 L22.60416,25.53932 L22.60416,24.33932 L27.60696,24.33932 C28.55976,24.33932 29.33456,25.16972 29.33456,26.19092 L29.33456,30.73492 C29.33456,31.75572 28.55976,32.58652 27.60696,32.58652" id="Fill-8" fill="#FFFFFF"></path>
                    <path d="M27.60696,23.38652 L22.49296,23.38652 L22.49296,22.18652 L27.60696,22.18652 C27.89816,22.18652 28.13456,21.89412 28.13456,21.53492 L28.13456,16.99092 C28.13456,16.63172 27.89816,16.33932 27.60696,16.33932 L5.34296,16.33932 C5.05176,16.33932 4.81536,16.63172 4.81536,16.99092 L4.81536,21.53492 C4.81536,21.89412 5.05176,22.18652 5.34296,22.18652 L10.61056,22.18652 L10.61056,23.38652 L5.34296,23.38652 C4.39016,23.38652 3.61536,22.55572 3.61536,21.53492 L3.61536,16.99092 C3.61536,15.96972 4.39016,15.13932 5.34296,15.13932 L27.60696,15.13932 C28.55976,15.13932 29.33456,15.96972 29.33456,16.99092 L29.33456,21.53492 C29.33456,22.55572 28.55976,23.38652 27.60696,23.38652" id="Fill-10" fill="#FFFFFF"></path>
                    <path d="M16.48228,18.56432 C16.25668,18.85952 16.01348,19.19112 15.95428,19.27832 C15.58228,19.77952 15.22708,20.25992 14.87268,20.74272 C14.74988,20.90312 14.63308,21.05272 14.51628,21.20272 C14.19268,21.61792 13.85788,22.04752 13.56588,22.48072 C13.56428,22.48312 13.56268,22.48512 13.56148,22.48712 C12.85508,23.50672 12.54028,24.35072 12.54028,25.22392 C12.52588,26.29952 12.92748,27.30832 13.67228,28.07352 C14.41668,28.83832 15.41468,29.26752 16.48228,29.28152 C18.66868,29.25392 20.43788,27.43952 20.40988,25.23752 C20.40988,23.86672 19.71548,22.93072 18.91108,21.84672 L16.48228,18.56432 Z M16.48268,30.48152 C15.07828,30.46272 13.78068,29.90472 12.81228,28.91032 C11.84428,27.91592 11.32148,26.60392 11.34028,25.21592 C11.34028,23.77432 11.99828,22.63672 12.57308,21.80712 C12.88748,21.34072 13.23428,20.89552 13.56988,20.46472 C13.68468,20.31752 13.79948,20.17072 13.91268,20.02232 C14.26148,19.54752 14.61828,19.06552 14.97428,18.58672 C16.02068,17.01872 16.31148,17.01232 16.50388,17.0078402 C16.70308,17.00472 16.89148,17.09792 17.00708,17.25592 L19.87588,21.13232 C20.72788,22.28152 21.60988,23.47032 21.60988,25.22392 C21.64588,28.08592 19.34588,30.44552 16.48268,30.48152 L16.48268,30.48152 Z" id="Fill-12" fill="#FFFFFF"></path>
                </g>
            </g>
        </g>
    </g>
</svg>