<?xml version="1.0" encoding="UTF-8"?>
<svg width="52px" height="52px" viewBox="0 0 52 52" version="1.1" xmlns="http://www.w3.org/2000/svg" xmlns:xlink="http://www.w3.org/1999/xlink">
    <!-- Generator: Sketch 63 (92445) - https://sketch.com -->
    <title>icon-uslug7</title>
    <desc>Created with Sketch.</desc>
    <defs>
        <polygon id="path-1" points="5.80645161e-05 5.77540107e-05 36 5.77540107e-05 36 31.7647059 5.80645161e-05 31.7647059"></polygon>
    </defs>
    <g id="site" stroke="none" stroke-width="1" fill="none" fill-rule="evenodd">
        <g id="CTO" transform="translate(-119.000000, -594.000000)">
            <g id="icon-uslug7" transform="translate(119.000000, 594.000000)">
                <circle id="Oval" fill="#EB9021" cx="26" cy="26" r="26"></circle>
                <g id="icon-cto8" transform="translate(9.000000, 10.000000)">
                    <path d="M13.9354839,28.299523 C12.6545806,28.299523 11.6129032,27.263416 11.6129032,25.9893626 C11.6129032,24.7153091 12.6545806,23.6792021 13.9354839,23.6792021 C15.2163871,23.6792021 16.2580645,24.7153091 16.2580645,25.9893626 C16.2580645,27.263416 15.2163871,28.299523 13.9354839,28.299523 M13.9354839,22.5241219 C12.014129,22.5241219 10.4516129,24.0777048 10.4516129,25.9893626 C10.4516129,27.9004428 12.014129,29.4546032 13.9354839,29.4546032 C15.8568387,29.4546032 17.4193548,27.9004428 17.4193548,25.9893626 C17.4193548,24.0777048 15.8568387,22.5241219 13.9354839,22.5241219" id="Fill-1" fill="#FFFFFF"></path>
                    <g id="Group-5">
                        <mask id="mask-2" fill="white">
                            <use xlink:href="#path-1"></use>
                        </mask>
                        <g id="Clip-4"></g>
                        <path d="M19.4743161,27.7219829 C19.647929,27.1744749 19.7419935,26.592892 19.7419935,25.9893626 L32.5161871,25.9893626 L32.5161871,24.8342824 L19.6247032,24.8342824 C19.0852839,22.2006995 16.7394774,20.2139615 13.9355419,20.2139615 C11.1316065,20.2139615 8.7858,22.2006995 8.24638065,24.8342824 L1.16134839,24.8342824 L1.16134839,17.326261 L26.0541871,17.326261 C27.1080581,18.3941326 28.5741871,19.0588813 30.1936065,19.0588813 L33.6728323,19.0588813 C34.4143161,20.436892 34.8387677,22.0089561 34.8387677,23.6792021 L34.8387677,24.8342824 L33.6774774,24.8342824 L33.6774774,25.9893626 L34.8387677,25.9893626 L34.8387677,27.7219829 L19.4743161,27.7219829 Z M13.9355419,30.6096834 C11.3743161,30.6096834 9.29038065,28.536892 9.29038065,25.9893626 C9.29038065,23.4418332 11.3743161,21.3690417 13.9355419,21.3690417 C16.4967677,21.3690417 18.5807032,23.4418332 18.5807032,25.9893626 C18.5807032,28.536892 16.4967677,30.6096834 13.9355419,30.6096834 L13.9355419,30.6096834 Z M1.16134839,27.7219829 L1.16134839,25.9893626 L8.12909032,25.9893626 C8.12909032,26.592892 8.22373548,27.1744749 8.39676774,27.7219829 L1.16134839,27.7219829 Z M17.0129613,16.1711807 L1.16134839,16.1711807 L1.16134839,6.93053904 L10.8267677,6.93053904 C11.4590903,6.93053904 12.0426387,7.27186524 12.3492194,7.82168342 L17.0129613,16.1711807 Z M9.29038065,2.31021818 C15.3738,2.31021818 20.3226387,7.23259251 20.3226387,13.2834802 L20.3226387,13.8610203 L24.4167677,13.8610203 C24.5003806,14.6967209 24.7686387,15.4781326 25.1721871,16.1711807 L18.3414774,16.1711807 L13.3641871,7.26089198 C12.8532194,6.34491337 11.8806387,5.77545882 10.8267677,5.77545882 L1.16134839,5.77545882 L1.16134839,2.31021818 L9.29038065,2.31021818 Z M31.4048323,1.34457112 C31.5261871,1.22444278 31.6939935,1.15513797 31.8652839,1.15513797 C32.2241226,1.15513797 32.5161871,1.44564064 32.5161871,1.80256043 C32.5161871,1.97582246 32.4488323,2.13811123 32.3257355,2.26054973 L21.8241871,12.7059401 L21.4705742,12.7059401 C21.4490903,12.2531487 21.3962516,11.8084428 21.3254129,11.3695123 L31.4048323,1.34457112 Z M30.7742516,14.3663679 C29.0851548,13.3204428 27.0993484,12.7059401 24.9678,12.7059401 L23.4662516,12.7059401 L30.7742516,5.43702032 L30.7742516,14.3663679 Z M32.9325097,17.9038011 L30.1936065,17.9038011 C27.8402516,17.9038011 25.8950903,16.1526995 25.5937355,13.892785 C28.6067032,14.0816406 31.2515419,15.6167422 32.9325097,17.9038011 L32.9325097,17.9038011 Z M36.0000581,23.6792021 C36.0000581,20.2555444 34.4137355,17.1940043 31.9355419,15.1806995 L31.9355419,4.28194011 L33.1467677,3.07719144 C33.4893484,2.73702032 33.6774774,2.28422888 33.6774774,1.80256043 C33.6774774,0.808613904 32.8645742,5.77540107e-05 31.8652839,5.77540107e-05 C31.3879935,5.77540107e-05 30.9211548,0.19237861 30.5838,0.527929412 L21.0269613,10.0330845 C19.593929,4.92127701 14.8808323,1.15513797 9.29038065,1.15513797 L5.80645161e-05,1.15513797 L5.80645161e-05,28.8770631 L8.91470323,28.8770631 C9.92038065,30.5998652 11.7918,31.7647636 13.9355419,31.7647636 C16.0792839,31.7647636 17.9507032,30.5998652 18.9563806,28.8770631 L36.0000581,28.8770631 L36.0000581,23.6792021 Z" id="Fill-3" fill="#FFFFFF" mask="url(#mask-2)"></path>
                    </g>
                </g>
            </g>
        </g>
    </g>
</svg>