<?xml version="1.0" encoding="UTF-8"?>
<svg width="52px" height="52px" viewBox="0 0 52 52" version="1.1" xmlns="http://www.w3.org/2000/svg" xmlns:xlink="http://www.w3.org/1999/xlink">
    <!-- Generator: Sketch 63 (92445) - https://sketch.com -->
    <title>icon-uslug3</title>
    <desc>Created with Sketch.</desc>
    <defs>
        <polygon id="path-1" points="0 5.59139785e-05 34.6666667 5.59139785e-05 34.6666667 34.6666667 0 34.6666667"></polygon>
    </defs>
    <g id="site" stroke="none" stroke-width="1" fill="none" fill-rule="evenodd">
        <g id="CTO" transform="translate(-420.000000, -892.000000)">
            <g id="icon-uslug3" transform="translate(420.000000, 892.000000)">
                <circle id="Oval" fill="#EB9021" cx="26" cy="26" r="26"></circle>
                <g id="Group-10" transform="translate(8.666667, 7.800000)">
                    <g id="Group-3">
                        <mask id="mask-2" fill="white">
                            <use xlink:href="#path-1"></use>
                        </mask>
                        <g id="Clip-2"></g>
                        <path d="M17.3333333,33.548443 C16.1664086,33.548443 15.0123441,33.4181634 13.884,33.1738194 C14.4929032,32.768443 15.0442151,32.2870237 15.5368172,31.7496903 C16.1311828,31.8223785 16.7316989,31.8710237 17.3333333,31.8710237 C22.5383656,31.8710237 27.3777204,29.0607871 29.9637419,24.5367871 L28.9930753,23.9821204 C28.8404301,24.2488301 28.6788387,24.5088301 28.5099785,24.7626796 L26.2566452,23.1249591 L25.5990968,24.0302065 L27.8468387,25.6623355 C27.199914,26.4770022 26.4663226,27.2077978 25.6611613,27.8446581 L24.0301505,25.5991527 L23.1260215,26.2567011 L24.7581505,28.5033247 C23.8987527,29.0736473 22.9739355,29.540529 22.0055054,29.9017333 L21.1483441,27.264271 L20.0848602,27.6098194 L20.9436989,30.2517548 C19.9573763,30.5290882 18.9347097,30.6901204 17.8924731,30.7337333 L17.8924731,27.9570452 L17.5978065,27.9570452 C17.7834409,27.2407871 17.8924731,26.4937763 17.8924731,25.720486 C17.8924731,20.7877548 13.8789677,16.7742495 8.94623656,16.7742495 C8.17294624,16.7742495 7.42593548,16.8832817 6.70967742,17.0689161 L6.70967742,16.7742495 L3.92795699,16.7742495 C3.97156989,15.7213892 4.13763441,14.7004 4.41105376,13.7230237 L7.05578495,14.5824215 L7.40189247,13.5189376 L4.75492473,12.6584215 C5.11836559,11.6832817 5.59251613,10.7618194 6.16172043,9.9080129 L8.40946237,11.5412602 L9.06701075,10.636572 L6.82206452,9.00556129 C7.46395699,8.19704516 8.19698925,7.4640129 9.00550538,6.82212043 L10.6365161,9.06762581 L11.5406452,8.41007742 L9.90795699,6.16233548 C10.7612043,5.59313118 11.6826667,5.11898065 12.6583656,4.75553978 L13.5188817,7.40250753 L14.5823656,7.05695914 L13.7229677,4.41166882 C14.6997849,4.13824946 15.7213333,3.97162581 16.7741935,3.9280129 L16.7741935,6.70973333 L17.8924731,6.70973333 L17.8924731,3.9280129 C18.9453333,3.97162581 19.9668817,4.13769032 20.9436989,4.41110968 L20.0837419,7.0564 L21.1472258,7.40194839 L22.0077419,4.75498065 C22.9828817,5.11842151 23.9043441,5.59257204 24.7581505,6.16177634 L23.1254624,8.40951828 L24.0295914,9.06706667 L25.6606022,6.82156129 C26.4691183,7.46345376 27.2021505,8.19592688 27.844043,9.00500215 L25.5990968,10.6360129 L26.2566452,11.5407011 L28.5043871,9.90745376 C29.0735914,10.7607011 29.5477419,11.6821634 29.9111828,12.6578624 L27.2642151,13.5183785 L27.6103226,14.5818624 L30.2550538,13.7224645 C30.5284731,14.6998409 30.6950968,15.7208301 30.7381505,16.7736903 L27.9569892,16.7736903 L27.9569892,17.8919699 L30.7381505,17.8919699 C30.6956559,18.9342065 30.5374194,19.9546366 30.2606452,20.9454323 L27.6103226,20.0837978 L27.2642151,21.1472817 L29.9123011,22.0077978 C29.8004731,22.3074968 29.6819355,22.6044 29.5483011,22.8973892 L30.5648172,23.3620344 C31.4314839,21.4654323 31.8709677,19.4368731 31.8709677,17.3333892 C31.8709677,9.31756129 25.3497204,2.79575484 17.3333333,2.79575484 C9.31694624,2.79575484 2.79569892,9.31756129 2.79569892,17.3333892 C2.79569892,17.8013892 2.81750538,18.5892172 2.85888172,19.1830237 C2.34503226,19.6622065 1.8831828,20.1956258 1.49290323,20.7827226 C1.24855914,19.6549376 1.11827957,18.5008731 1.11827957,17.3333892 C1.11827957,8.39218495 8.39268817,1.11833548 17.3333333,1.11833548 C26.2739785,1.11833548 33.5483871,8.39218495 33.5483871,17.3333892 C33.5483871,26.2745935 26.2739785,33.548443 17.3333333,33.548443 L17.3333333,33.548443 Z M16.7741935,30.7303785 C16.6377634,30.7247871 16.5013333,30.7236688 16.3654624,30.7141634 C16.511957,30.4972172 16.6467097,30.2718839 16.7741935,30.0420774 L16.7741935,30.7303785 Z M3.92180645,17.892529 L4.6252043,17.892529 C4.38868817,18.0228086 4.15776344,18.1625935 3.93466667,18.3141204 C3.92907527,18.1704215 3.92516129,18.0284 3.92180645,17.892529 L3.92180645,17.892529 Z M1.11827957,25.720486 C1.11827957,21.4039269 4.62967742,17.892529 8.94623656,17.892529 C13.2627957,17.892529 16.7741935,21.4039269 16.7741935,25.720486 C16.7741935,30.0370452 13.2627957,33.548443 8.94623656,33.548443 C4.62967742,33.548443 1.11827957,30.0370452 1.11827957,25.720486 L1.11827957,25.720486 Z M17.3333333,5.59139785e-05 C7.77539785,5.59139785e-05 0,7.7760129 0,17.3333892 C0,19.0007441 0.244903226,20.6451742 0.710666667,22.2280989 C0.253849462,23.3016473 0,24.4819914 0,25.720486 C0,30.6532172 4.01350538,34.6667226 8.94623656,34.6667226 C10.1847312,34.6667226 11.3645161,34.4134323 12.4380645,33.9560559 C14.0226667,34.4218194 15.6659785,34.6667226 17.3333333,34.6667226 C26.8912688,34.6667226 34.6666667,26.8907656 34.6666667,17.3333892 C34.6666667,7.7760129 26.8912688,5.59139785e-05 17.3333333,5.59139785e-05 L17.3333333,5.59139785e-05 Z" id="Fill-1" fill="#FFFFFF" mask="url(#mask-2)"></path>
                    </g>
                    <path d="M17.3333333,18.4516688 C16.7166022,18.4516688 16.2150538,17.9501204 16.2150538,17.3333892 C16.2150538,16.7166581 16.7166022,16.2151097 17.3333333,16.2151097 C17.9500645,16.2151097 18.4516129,16.7166581 18.4516129,17.3333892 C18.4516129,17.9501204 17.9500645,18.4516688 17.3333333,18.4516688 L17.3333333,18.4516688 Z M18.4622366,15.4138624 C18.1295484,15.2170452 17.7470968,15.0968301 17.3333333,15.0968301 C16.099871,15.0968301 15.0967742,16.0999269 15.0967742,17.3333892 C15.0967742,18.5668516 16.099871,19.5699484 17.3333333,19.5699484 C18.5667957,19.5699484 19.5698925,18.5668516 19.5698925,17.3333892 C19.5698925,16.9196258 19.4496774,16.5371742 19.2528602,16.204486 L24.4383226,11.0190237 L23.6476989,10.2284 L18.4622366,15.4138624 Z" id="Fill-4" fill="#FFFFFF"></path>
                    <path d="M12.6633419,29.8856301 L11.6988258,28.5582323 L10.7946968,29.2157806 L11.7603312,30.5442968 C11.0848903,30.9401677 10.3222237,31.2018452 9.50587957,31.2834796 L9.50587957,29.6345763 L8.3876,29.6345763 L8.3876,31.2834796 C7.57069677,31.2018452 6.80858925,30.9396086 6.13314839,30.5442968 L7.0987828,29.2157806 L6.19465376,28.5582323 L5.23013763,29.8856301 C4.6380086,29.3566839 4.15770753,28.7064043 3.83228817,27.9694581 L5.39732043,27.4612 L5.05233118,26.3977161 L3.48562151,26.9070925 C3.4011914,26.5240817 3.3547828,26.1276516 3.3547828,25.7205978 C3.3547828,25.3124258 3.4011914,24.9159957 3.48450323,24.5335441 L5.0512129,25.0429204 L5.39620215,23.9794366 L3.83116989,23.4700602 C4.15603011,22.7347914 4.63633118,22.0845118 5.22901935,21.5550065 L6.19353548,22.8824043 L7.09766452,22.2248559 L6.13203011,20.8963398 C6.80747097,20.5004688 7.57013763,20.2387914 8.38648172,20.157157 L8.38648172,21.8066194 L9.50476129,21.8066194 L9.50476129,20.1577161 C10.3216645,20.2393505 11.083772,20.5015871 11.7592129,20.8968989 L10.7935785,22.2254151 L11.6977075,22.8829634 L12.6622237,21.5555656 C13.2543527,22.0845118 13.7352129,22.7347914 14.0600731,23.4706194 L12.4950409,23.9794366 L12.8400301,25.0434796 L14.4067398,24.5341032 C14.4911699,24.9159957 14.5375785,25.3124258 14.5375785,25.7205978 C14.5375785,26.1276516 14.4911699,26.5240817 14.4078581,26.9076516 L12.8411484,26.3982753 L12.4961591,27.4617591 L14.0611914,27.9700172 C13.735772,28.7064043 13.255471,29.3566839 12.6633419,29.8856301 M8.94618065,19.0109204 C5.24635269,19.0109204 2.23650323,22.0207699 2.23650323,25.7205978 C2.23650323,29.4204258 5.24635269,32.4302753 8.94618065,32.4302753 C12.6460086,32.4302753 15.6558581,29.4204258 15.6558581,25.7205978 C15.6558581,22.0207699 12.6460086,19.0109204 8.94618065,19.0109204" id="Fill-6" fill="#FFFFFF"></path>
                    <path d="M8.94623656,24.6022065 C8.90150538,24.6022065 8.85956989,24.6100344 8.81651613,24.6145075 L7.71612903,23.1478839 L6.82150538,23.8194108 L7.91797849,25.2815613 C7.8603871,25.416314 7.82795699,25.564486 7.82795699,25.720486 C7.82795699,26.3372172 8.32950538,26.8387656 8.94623656,26.8387656 C9.56296774,26.8387656 10.0645161,26.3372172 10.0645161,25.720486 C10.0645161,25.1031957 9.56296774,24.6022065 8.94623656,24.6022065" id="Fill-8" fill="#FFFFFF"></path>
                </g>
            </g>
        </g>
    </g>
</svg>