<?xml version="1.0" encoding="UTF-8"?>
<svg width="52px" height="52px" viewBox="0 0 52 52" version="1.1" xmlns="http://www.w3.org/2000/svg" xmlns:xlink="http://www.w3.org/1999/xlink">
    <!-- Generator: Sketch 63 (92445) - https://sketch.com -->
    <title>icon-uslug8</title>
    <desc>Created with Sketch.</desc>
    <g id="site" stroke="none" stroke-width="1" fill="none" fill-rule="evenodd">
        <g id="CTO" transform="translate(-125.000000, -743.000000)">
            <g id="icon-uslug8" transform="translate(125.000000, 743.000000)">
                <circle id="Oval" fill="#EB9021" cx="26" cy="26" r="26"></circle>
                <path d="M25.2608696,12.826087 L26.8695652,12.826087 L26.8695652,11.2173913 L25.2608696,11.2173913 L25.2608696,12.826087 Z M25.2608696,41.7826087 L20.4347826,41.7826087 C19.9899783,41.7826087 19.6304348,41.4230652 19.6304348,40.9782609 C19.6304348,40.5334565 19.9899783,40.173913 20.4347826,40.173913 L25.2608696,40.173913 C25.7056739,40.173913 26.0652174,40.5334565 26.0652174,40.9782609 C26.0652174,41.4230652 25.7056739,41.7826087 25.2608696,41.7826087 L25.2608696,41.7826087 Z M31.6956522,41.7826087 L29.2826087,41.7826087 C28.8378043,41.7826087 28.4782609,41.4230652 28.4782609,40.9782609 C28.4782609,40.5334565 28.8378043,40.173913 29.2826087,40.173913 L31.6956522,40.173913 C32.1404565,40.173913 32.5,40.5334565 32.5,40.9782609 C32.5,41.4230652 32.1404565,41.7826087 31.6956522,41.7826087 L31.6956522,41.7826087 Z M36.5217391,38.5652174 L15.6086957,38.5652174 L15.6086957,41.7826087 C15.6086957,42.6706087 16.3293913,43.3913043 17.2173913,43.3913043 L34.9130435,43.3913043 C35.8010435,43.3913043 36.5217391,42.6706087 36.5217391,41.7826087 L36.5217391,38.5652174 Z M26.8808261,32.5229565 C26.8800217,32.5253696 26.8800217,32.5261739 26.8800217,32.5261739 C26.8776087,32.5261739 26.8663478,31.8979783 26.8663478,31.8979783 C26.8663478,31.8979783 27.8042174,31.4145652 28.4999783,30.789587 C28.9077826,30.4541739 29.096,29.6940652 29.096,29.6940652 C29.2061957,29.0280652 29.2874348,27.3799565 29.2874348,26.7155652 C29.2874348,25.057 28.4565435,23.2729565 26.064413,23.2729565 L26.064413,23.2673261 L26.064413,23.2729565 C23.6722826,23.2729565 22.8413913,25.0578043 22.8413913,26.7155652 C22.8413913,27.3799565 22.9242391,29.0280652 23.0328261,29.6940652 C23.0328261,29.6940652 23.2210435,30.4541739 23.6288478,30.789587 C24.3246087,31.4145652 25.2624783,31.8979783 25.2624783,31.8979783 C25.2624783,31.8979783 25.2512174,32.5261739 25.248,32.5261739 L25.248,32.5229565 C25.248,32.5229565 25.2713261,33.4447391 25.2713261,33.7182174 C25.2713261,34.8145435 24.1733913,35.3421957 23.4832609,35.3421957 L23.4808478,35.3421957 C21.3951739,35.4338913 20.902913,36.1272391 20.8988913,36.1336739 C20.7718043,36.3371739 20.5956522,36.5398696 20.4331739,36.9565217 L31.6980652,36.9565217 C31.5347826,36.5398696 31.3586304,36.3371739 31.2299348,36.1344783 C31.2251087,36.1272391 30.7320435,35.4346957 28.6471739,35.343 L28.6455652,35.343 C27.9554348,35.343 26.8566957,34.8161522 26.8566957,33.7190217 C26.8566957,33.4447391 26.8808261,32.5229565 26.8808261,32.5229565 L26.8808261,32.5229565 Z M36.5217391,17.6521739 C36.5217391,16.7641739 35.8010435,16.0434783 34.9130435,16.0434783 L29.2826087,16.0434783 C29.2826087,17.8202826 27.8420217,19.2608696 26.0652174,19.2608696 C24.288413,19.2608696 22.8478261,17.8202826 22.8478261,16.0434783 L17.2173913,16.0434783 C16.3293913,16.0434783 15.6086957,16.7641739 15.6086957,17.6521739 L15.6086957,36.9565217 L18.6628043,36.9565217 C18.8486087,36.4827609 19.1904565,35.710587 19.5958478,35.1547826 C19.6159565,35.1435217 20.2779348,33.7560217 23.6159783,33.715 C23.6208043,33.6981087 23.6240217,32.8768696 23.6336739,32.8889348 C23.3762826,32.7264565 23.0408696,32.4738913 22.7883043,32.232587 C22.5831957,32.1071087 21.8544565,31.404913 21.6203913,30.1549565 C21.550413,29.719 21.2278696,27.6622826 21.2278696,26.8040435 C21.2278696,24.2534565 22.2453696,21.6715 26.0161522,21.6715 L26.1134783,21.6715 C29.8842609,21.6715 30.9017609,24.2534565 30.9017609,26.8040435 C30.9017609,27.6622826 30.5792174,29.719 30.5092391,30.1549565 C30.2751739,31.404913 29.5472391,32.1071087 29.3413261,32.232587 C29.0895652,32.4746957 28.7541522,32.7264565 28.4959565,32.8889348 C28.506413,32.8768696 28.5104348,33.698913 28.5136522,33.715 C31.8525,33.7560217 32.5144783,35.1435217 32.5337826,35.1547826 C32.9391739,35.710587 33.2810217,36.4827609 33.4668261,36.9565217 L36.5217391,36.9565217 L36.5217391,17.6521739 Z M27.673913,11.2173913 C27.673913,10.3293913 26.9532174,9.60869565 26.0652174,9.60869565 C25.1772174,9.60869565 24.4565217,10.3293913 24.4565217,11.2173913 L24.4565217,16.0434783 C24.4565217,16.9314783 25.1772174,17.6521739 26.0652174,17.6521739 C26.9532174,17.6521739 27.673913,16.9314783 27.673913,16.0434783 L27.673913,11.2173913 Z M34.9130435,45 L17.2173913,45 C15.440587,45 14,43.559413 14,41.7826087 L14,17.6521739 C14,15.8753696 15.440587,14.4347826 17.2173913,14.4347826 L22.8478261,14.4347826 L22.8478261,11.2173913 C22.8478261,9.44058696 24.288413,8 26.0652174,8 C27.8420217,8 29.2826087,9.44058696 29.2826087,11.2173913 L29.2826087,14.4347826 L34.9130435,14.4347826 C36.6898478,14.4347826 38.1304348,15.8753696 38.1304348,17.6521739 L38.1304348,41.7826087 C38.1304348,43.559413 36.6898478,45 34.9130435,45 L34.9130435,45 Z" id="Fill-1" fill="#FFFFFF"></path>
            </g>
        </g>
    </g>
</svg>