<?xml version="1.0" encoding="UTF-8"?>
<svg width="22px" height="22px" viewBox="0 0 22 22" version="1.1" xmlns="http://www.w3.org/2000/svg" xmlns:xlink="http://www.w3.org/1999/xlink">
    <title>iconfinder_avatar_1814089</title>
    <g id="site" stroke="none" stroke-width="1" fill="none" fill-rule="evenodd">
        <g id="Apple-TV-Copy" transform="translate(-1233.000000, -119.000000)" fill="#FFFFFF" fill-rule="nonzero">
            <g id="iconfinder_avatar_1814089" transform="translate(1233.000000, 119.000000)">
                <path d="M11,22 C4.92468619,22 0,17.0753138 0,11 C0,4.92468619 4.92468619,0 11,0 C17.0753138,0 22,4.92468619 22,11 C22,17.0753138 17.0753138,22 11,22 L11,22 Z M11,1.19665272 C5.61506276,1.19665272 1.19665272,5.61506276 1.19665272,11 C1.19665272,16.3849372 5.61506276,20.8033473 11,20.8033473 C16.3849372,20.8033473 20.8033473,16.3849372 20.8033473,11 C20.8033473,5.61506276 16.3849372,1.19665272 11,1.19665272 L11,1.19665272 Z" id="Fill-57"></path>
                <path d="M5.08433735,19 L4,18.505618 C4.31626506,17.741573 5.31024096,17.3370787 6.43975904,16.8426966 C7.52409639,16.3483146 8.87951807,15.7640449 8.87951807,15.0449438 L8.87951807,14.0561798 C8.47289157,13.741573 7.84036145,13.0224719 7.75,11.988764 C7.43373494,11.6741573 6.93674699,11.0898876 6.93674699,10.3707865 C6.93674699,9.92134831 7.11746988,9.56179775 7.25301205,9.33707865 C7.1626506,8.84269663 6.98192771,7.85393258 6.98192771,7.08988764 C6.98192771,4.61797753 8.69879518,3 11.4096386,3 C12.1777108,3 13.126506,3.2247191 13.623494,3.76404494 C14.8433735,3.98876404 15.8373494,5.42696629 15.8373494,7.08988764 C15.8373494,8.16853933 15.6566265,9.06741573 15.5210843,9.47191011 C15.6566265,9.69662921 15.7921687,10.011236 15.7921687,10.3707865 C15.7921687,11.2247191 15.3855422,11.7640449 14.9789157,12.0337079 C14.8885542,13.0674157 14.3012048,13.741573 13.939759,14.0561798 L13.939759,15.0449438 C13.939759,15.6741573 15.0692771,16.0786517 16.1084337,16.4831461 C17.3283133,16.9325843 18.5933735,17.3820225 19,18.4157303 L17.8704819,18.8202247 C17.689759,18.2808989 16.6054217,17.9213483 15.7018072,17.5617978 C14.3012048,17.0674157 12.7198795,16.4831461 12.7198795,15.0449438 L12.7198795,13.4269663 L12.9909639,13.247191 C13.0361446,13.247191 13.8042169,12.7078652 13.8042169,11.6741573 L13.8042169,11.2696629 L14.1656627,11.1348315 C14.2108434,11.0898876 14.5722892,10.9101124 14.5722892,10.3707865 C14.5722892,10.1910112 14.436747,10.011236 14.3915663,9.96629213 L14.1656627,9.69662921 L14.2560241,9.38202247 C14.2560241,9.38202247 14.5722892,8.39325843 14.5722892,7.04494382 C14.5722892,5.92134831 13.939759,4.88764045 13.2620482,4.88764045 L12.9006024,4.88764045 L12.7198795,4.57303371 C12.5843373,4.34831461 12.0421687,4.12359551 11.3192771,4.12359551 C9.28614458,4.12359551 8.06626506,5.20224719 8.06626506,7.04494382 C8.06626506,7.8988764 8.38253012,9.29213483 8.38253012,9.29213483 L8.47289157,9.60674157 L8.24698795,9.83146067 C8.24698795,9.83146067 8.06626506,10.0561798 8.06626506,10.2808989 C8.06626506,10.5955056 8.47289157,11 8.65361446,11.1797753 L8.87951807,11.3595506 L8.87951807,11.6741573 C8.87951807,12.6629213 9.73795181,13.2022472 9.73795181,13.2022472 L10.0090361,13.3820225 L10.0090361,15 C10.0090361,16.4831461 8.3373494,17.247191 6.84638554,17.8764045 C6.21385542,18.2359551 5.26506024,18.6853933 5.08433735,19" id="Fill-58"></path>
            </g>
        </g>
    </g>
</svg>