<svg xmlns="http://www.w3.org/2000/svg" viewBox="0 0 22 22"><defs><style>.cls-1{fill:#fff;}</style></defs><g id="Слой_2" data-name="Слой 2"><g id="Слой_1-2" data-name="Слой 1"><path class="cls-1" d="M11,0A11,11,0,1,0,22,11,11,11,0,0,0,11,0ZM1.2,11a9.8,9.8,0,1,1,17.09,6.52,8.47,8.47,0,0,0-2.18-1c-1-.4-2.17-.81-2.17-1.44v-1a3.07,3.07,0,0,0,1-2,1.91,1.91,0,0,0,.81-1.66,1.74,1.74,0,0,0-.27-.9,8.08,8.08,0,0,0,.32-2.38,3.27,3.27,0,0,0-2.22-3.33A3.14,3.14,0,0,0,11.41,3C8.7,3,7,4.62,7,7.09a14.15,14.15,0,0,0,.27,2.25,2,2,0,0,0-.31,1A2.42,2.42,0,0,0,7.75,12a3,3,0,0,0,1.13,2.07v1c0,.72-1.36,1.31-2.44,1.8a6.43,6.43,0,0,0-2.17,1.25A9.75,9.75,0,0,1,1.2,11Zm4,7.87a11.35,11.35,0,0,1,1.66-1C8.34,17.25,10,16.48,10,15V13.38l-.27-.18a2,2,0,0,1-.86-1.53v-.31l-.23-.18c-.18-.18-.58-.58-.58-.9a.88.88,0,0,1,.18-.45l.22-.22-.09-.32A13.52,13.52,0,0,1,8.07,7c0-1.84,1.22-2.92,3.25-2.92a1.83,1.83,0,0,1,1.4.45l.18.32h.36c.68,0,1.31,1,1.31,2.15a8.63,8.63,0,0,1-.31,2.34l-.09.32.22.27a.62.62,0,0,1,.18.4.86.86,0,0,1-.4.76l-.37.14v.4A1.86,1.86,0,0,1,13,13.25l-.27.18V15c0,1.44,1.58,2,3,2.52a10.26,10.26,0,0,1,1.75.79,9.71,9.71,0,0,1-12.26.52Z"/></g></g></svg>