<?xml version="1.0" encoding="UTF-8"?>
<svg width="28px" height="28px" viewBox="0 0 28 28" version="1.1" xmlns="http://www.w3.org/2000/svg" xmlns:xlink="http://www.w3.org/1999/xlink">
    <title>iconfinder_mail_email_inbox_message_5402397</title>
    <g id="site" stroke="none" stroke-width="1" fill="none" fill-rule="evenodd">
        <g id="Apple-TV-Copy" transform="translate(-1139.000000, -41.000000)">
            <g id="iconfinder_mail_email_inbox_message_5402397" transform="translate(1139.000000, 41.000000)">
                <circle id="Oval" fill="#F37B09" cx="14" cy="14" r="14"></circle>
                <g id="Group" transform="translate(5.000000, 7.000000)" fill="#FFFFFF" fill-rule="nonzero">
                    <path d="M9.35375,7.0525 C9.02070829,7.35307872 8.51429171,7.35307872 8.18125,7.0525 L0.76125,0.30625 C1.05241242,0.10680101 1.39707586,3.10862447e-15 1.75,3.10862447e-15 L15.75,3.10862447e-15 C16.1029241,3.10862447e-15 16.4475876,0.10680101 16.73875,0.30625 L9.35375,7.0525 Z" id="Path"></path>
                    <path d="M17.5,1.9775 L17.5,11.375 C17.5,12.8247475 16.3247475,14 14.875,14 L2.625,14 C1.17525253,14 0,12.8247475 0,11.375 L0,1.9775 L7.595,8.9075 C7.91530228,9.18569342 8.32575732,9.3380593 8.75,9.33625 C9.17953692,9.33536221 9.59374523,9.17653045 9.91375,8.89 L17.5,1.9775 Z" id="Path"></path>
                </g>
            </g>
        </g>
    </g>
</svg>