<?xml version="1.0" encoding="UTF-8"?>
<svg width="28px" height="28px" viewBox="0 0 28 28" version="1.1" xmlns="http://www.w3.org/2000/svg" xmlns:xlink="http://www.w3.org/1999/xlink">
    <title>iconfinder_BW_Whatsapp_glyph_svg_5305166</title>
    <g id="site" stroke="none" stroke-width="1" fill="none" fill-rule="evenodd">
        <g id="Apple-TV-Copy" transform="translate(-957.000000, -41.000000)">
            <g id="iconfinder_BW_Whatsapp_glyph_svg_5305166" transform="translate(957.000000, 41.000000)">
                <circle id="Oval" fill="#F37B09" cx="14" cy="14" r="14"></circle>
                <path d="M14,3 C20.0751322,3 25,7.92486775 25,14 C25,20.0751322 20.0751322,25 14,25 C7.92486775,25 3,20.0751322 3,14 C3,7.92486775 7.92486775,3 14,3 Z M14,5 C9.02943725,5 5,9.02943725 5,14 C5,18.9705627 9.02943725,23 14,23 C18.9705627,23 23,18.9705627 23,14 C23,9.02943725 18.9705627,5 14,5 Z" id="Oval" fill="#FFFFFF" fill-rule="nonzero"></path>
                <path d="M18.4419009,16.1191647 C18.171251,15.9865239 16.8406479,15.3454546 16.5925593,15.2569165 C16.3445132,15.1684616 16.1641083,15.1243173 15.9836609,15.3895573 C15.803256,15.6548388 15.28456,16.2518471 15.1266738,16.4287153 C14.9688301,16.6055836 14.810944,16.6278013 14.5403366,16.4950357 C14.2696868,16.3624365 13.3976164,16.0825928 12.3638784,15.179612 C11.5593643,14.4768822 11.0161526,13.6090172 10.8583089,13.343694 C10.7004227,13.0783709 10.8414411,12.9349541 10.976936,12.8028126 C11.0987496,12.6840683 11.2476283,12.493262 11.3829108,12.3384867 C11.5182782,12.1837946 11.5633581,12.0731635 11.6535606,11.8963785 C11.7437631,11.7194687 11.6986831,11.564735 11.6309569,11.4320942 C11.5633581,11.2994534 11.0221009,9.9949306 10.7965735,9.46420109 C10.576867,8.94749289 10.3537615,9.01747463 10.1876326,9.0092782 C10.0299589,9.00162264 9.84929905,9 9.66893663,9 C9.48853172,9 9.19527814,9.06632039 8.94718952,9.33156032 C8.69914339,9.59688347 8,10.2381192 8,11.5425172 C8,12.8470816 8.96975075,14.1072106 9.10507568,14.2841204 C9.24040061,14.4610303 11.0134758,17.1378941 13.728472,18.2858525 C14.3741228,18.5589561 14.8782878,18.722011 15.2713037,18.8441254 C15.9196312,19.0458742 16.5096223,19.0174155 16.9759729,18.9491396 C17.4959435,18.873125 18.5771833,18.3080703 18.8027532,17.6890523 C19.0282381,17.0698679 19.0282381,16.5392632 18.9605968,16.4287153 C18.8929556,16.3181675 18.7125507,16.2518471 18.4419009,16.1191647" id="WhatsApp-Logo-path" fill="#FFFFFF"></path>
            </g>
        </g>
    </g>
</svg>